<?xml version="1.0" standalone="no"?>
<!DOCTYPE svg PUBLIC "-//W3C//DTD SVG 20010904//EN"
 "http://www.w3.org/TR/2001/REC-SVG-20010904/DTD/svg10.dtd">
<svg version="1.0" xmlns="http://www.w3.org/2000/svg"
 width="395.000000pt" height="362.000000pt" viewBox="0 0 395.000000 362.000000"
 preserveAspectRatio="xMidYMid meet">

<g transform="translate(0.000000,362.000000) scale(0.100000,-0.100000)"
fill="#000000" stroke="none">
<path d="M3930 3525 c0 -57 4 -95 10 -95 6 0 10 38 10 95 0 57 -4 95 -10 95
-6 0 -10 -38 -10 -95z"/>
<path d="M852 2688 c4 -10 172 -14 780 -18 733 -5 777 -6 796 -23 36 -33 44
-70 40 -182 -3 -103 -4 -108 -31 -131 l-28 -24 -767 0 c-422 0 -773 -4 -781
-9 -37 -23 5 -31 169 -31 102 0 171 -4 175 -10 4 -6 -5 -10 -20 -10 -41 0
-131 -48 -178 -94 -62 -61 -90 -125 -95 -218 -7 -140 50 -244 169 -308 l64
-35 515 -3 516 -3 -6 48 -5 48 -495 5 c-272 3 -501 9 -507 13 -10 6 -13 61
-13 218 l0 209 26 10 c15 6 286 10 699 10 l674 0 26 23 c24 20 26 25 14 50
-12 26 -14 27 -100 27 -48 0 -90 4 -93 8 -3 5 10 16 29 25 19 9 35 22 35 27 0
6 4 9 9 6 5 -3 16 9 25 28 12 25 16 64 16 146 0 121 -9 152 -56 189 -27 21
-31 21 -816 21 -627 0 -789 -3 -786 -12z"/>
<path d="M3180 2360 c0 -16 5 -30 10 -30 6 0 10 14 10 30 0 17 -4 30 -10 30
-5 0 -10 -13 -10 -30z"/>
<path d="M2596 1773 c-96 -2 -165 -8 -173 -14 -18 -15 -19 -289 -1 -307 17
-17 389 -17 406 0 17 17 17 292 0 306 -20 15 -61 18 -232 15z"/>
<path d="M1757 846 c-92 -34 -129 -114 -93 -201 17 -40 69 -76 145 -100 58
-19 101 -53 101 -80 0 -9 -11 -27 -25 -40 -32 -33 -86 -33 -150 0 l-49 24 -27
-32 c-33 -39 -27 -50 46 -83 38 -18 67 -24 120 -24 112 1 187 47 205 127 21
91 -27 163 -136 202 -91 32 -109 44 -112 73 -7 56 87 75 154 31 23 -15 26 -14
45 3 44 39 43 51 -7 80 -56 33 -158 42 -217 20z"/>
<path d="M250 800 l0 -50 65 0 65 0 0 -215 0 -215 65 0 65 0 0 215 0 215 65 0
c57 0 65 2 65 19 0 10 3 33 6 50 l7 31 -202 0 -201 0 0 -50z"/>
<path d="M700 586 l0 -266 60 0 60 0 0 100 0 100 28 0 c24 0 33 -11 80 -100
l53 -100 70 0 71 0 -20 33 c-54 86 -113 189 -110 191 73 42 104 98 95 168 -7
53 -29 84 -80 110 -35 18 -64 22 -174 26 l-133 5 0 -267z m223 163 c30 -16 37
-28 37 -66 0 -49 -29 -73 -90 -73 l-50 0 0 75 0 75 41 0 c22 0 50 -5 62 -11z"/>
<path d="M1160 663 c0 -202 7 -246 46 -292 56 -66 211 -83 288 -31 68 46 76
79 76 308 l0 202 -59 0 -60 0 -3 -206 c-3 -202 -3 -206 -27 -225 -30 -24 -72
-24 -102 0 -23 19 -24 24 -29 223 l-5 203 -62 3 -63 3 0 -188z"/>
<path d="M2060 800 l0 -50 65 0 65 0 0 -215 0 -215 65 0 65 0 0 215 0 215 65
0 c57 0 65 2 65 19 0 10 3 33 6 50 l7 31 -202 0 -201 0 0 -50z"/>
<path d="M3328 813 c-14 -3 -18 -15 -18 -49 0 -42 -1 -44 -30 -44 -28 0 -30
-2 -30 -40 0 -38 2 -40 30 -40 l30 0 0 -115 c0 -133 13 -175 59 -199 38 -20
113 -20 151 -1 l30 15 -17 35 c-15 32 -20 35 -45 29 -50 -11 -58 6 -58 127 l0
109 39 0 c35 0 39 3 45 31 9 48 9 49 -39 49 l-45 0 0 50 0 50 -42 -1 c-24 -1
-51 -3 -60 -6z"/>
<path d="M2618 731 c-81 -26 -129 -101 -130 -203 -2 -80 14 -126 55 -166 42
-40 75 -52 145 -52 56 0 132 26 146 49 4 6 -3 24 -15 40 -21 29 -23 29 -51 15
-16 -8 -48 -16 -71 -16 -32 0 -46 5 -64 26 -13 15 -23 36 -23 47 0 18 8 19
126 19 l127 0 -6 59 c-6 76 -31 127 -76 156 -40 27 -121 39 -163 26z m97 -96
c14 -13 25 -36 25 -50 0 -24 -2 -25 -65 -25 -63 0 -65 1 -65 25 0 29 40 75 65
75 9 0 27 -11 40 -25z"/>
<path d="M2999 725 c-51 -16 -76 -39 -88 -81 -19 -69 27 -129 121 -159 64 -21
82 -36 74 -63 -12 -36 -73 -38 -137 -6 -24 12 -28 11 -55 -17 l-29 -31 23 -19
c54 -43 178 -52 249 -18 51 25 73 61 73 119 0 55 -36 89 -127 121 -60 21 -68
27 -68 49 0 22 5 25 37 28 20 2 51 -3 70 -11 34 -14 34 -14 56 19 l22 34 -39
19 c-53 27 -126 34 -182 16z"/>
</g>
</svg>
